<?xml version="1.0" encoding="UTF-8"?>
<svg version="1.1" xmlns="http://www.w3.org/2000/svg" width="891" height="560">
<path d="M0 0 C294.03 0 588.06 0 891 0 C891 184.8 891 369.6 891 560 C596.97 560 302.94 560 0 560 C0 375.2 0 190.4 0 0 Z " fill="#000000" transform="translate(0,0)"/>
<path d="M0 0 C-1.33067777 3.6298179 -2.94660275 6.65056428 -5.11328125 9.84765625 C-5.76973633 10.82331543 -6.42619141 11.79897461 -7.10253906 12.80419922 C-7.83182617 13.87943848 -8.56111328 14.95467773 -9.3125 16.0625 C-10.94158765 18.4812044 -12.56656641 20.90265931 -14.19140625 23.32421875 C-14.63672699 23.98713928 -15.08204773 24.65005981 -15.54086304 25.33306885 C-22.62356379 35.89079568 -29.58771334 46.52748503 -36.57461548 57.14871216 C-38.35657472 59.85725746 -40.13904432 62.56546573 -41.921875 65.2734375 C-42.50122299 66.1535701 -43.08057098 67.0337027 -43.67747498 67.94050598 C-48.52921992 75.30312679 -53.41842393 82.64047865 -58.32977295 89.96347046 C-61.19250988 94.2421728 -64.00189604 98.54168803 -66.69659424 102.92843628 C-67.83736182 104.76570067 -69.01726665 106.57438927 -70.203125 108.3828125 C-72.20475121 111.534278 -73.88244227 114.76543559 -75.50540161 118.12663269 C-85.22076204 137.90302511 -85.22076204 137.90302511 -92.98742676 140.72113037 C-103.39631257 143.07179933 -114.5694093 141.57617416 -125 140 C-123.7802672 136.73877874 -122.43837433 133.91938914 -120.48046875 131.04296875 C-119.96411865 130.27750732 -119.44776855 129.5120459 -118.91577148 128.72338867 C-118.34544189 127.88654541 -117.7751123 127.04970215 -117.1875 126.1875 C-115.9102545 124.2924775 -114.63429543 122.39658753 -113.359375 120.5 C-112.66134766 119.46230469 -111.96332031 118.42460937 -111.24414062 117.35546875 C-107.09397701 111.16458657 -103.02164842 104.92202049 -98.9375 98.6875 C-98.03674712 97.31336591 -97.13594919 95.93926136 -96.23510742 94.56518555 C-94.40235548 91.76941124 -92.5699666 88.97339942 -90.73779297 86.17724609 C-86.32877238 79.44915073 -81.9140628 72.72478788 -77.5 66 C-75.76165702 63.35160301 -74.02336927 60.70316979 -72.28515625 58.0546875 C-71.85385406 57.39752243 -71.42255188 56.74035736 -70.97817993 56.0632782 C-68.72790531 52.63422979 -66.47838399 49.20468966 -64.22998047 45.77441406 C-63.76842056 45.07044495 -63.30686066 44.36647583 -62.83131409 43.64117432 C-61.90277352 42.22392872 -60.97514415 40.80608569 -60.04844666 39.38763428 C-57.79279693 35.93794936 -55.52237859 32.50035071 -53.21362305 29.0859375 C-49.46648432 23.51734686 -45.91649336 18.16220027 -43.2109375 11.9921875 C-35.06281453 -5.61630913 -16.7713803 -1.63466469 0 0 Z " fill="#5F4D7C" transform="translate(186,217)"/>
<path d="M0 0 C7.61399216 5.62640384 12.36734859 12.44979756 14.734375 21.66796875 C16.35051569 32.77680949 15.55071066 43.49919828 9.2578125 53.01171875 C3.10578492 60.57056207 -4.47766918 64.16211867 -13.89453125 66.21875 C-25.85661503 67.12309998 -38.63384927 67.8851646 -48.26953125 59.84375 C-49.49866158 58.65657793 -50.70984312 57.45027464 -51.89453125 56.21875 C-52.63703125 55.455625 -53.37953125 54.6925 -54.14453125 53.90625 C-61.32168132 42.8841981 -61.78438556 29.66802157 -59.234375 16.91796875 C-58.34235458 14.4349855 -57.3390056 12.42211236 -55.89453125 10.21875 C-55.20037109 9.15333984 -55.20037109 9.15333984 -54.4921875 8.06640625 C-42.91220682 -7.13762706 -15.78099764 -9.71138316 0 0 Z " fill="#F6F6F6" transform="translate(445.89453125,255.78125)"/>
<path d="M0 0 C3.90640099 1.30213366 4.45623321 2.85887187 6.6171875 6.3203125 C7.30683594 7.4134375 7.99648437 8.5065625 8.70703125 9.6328125 C9.43008633 10.79662731 10.15273972 11.96069178 10.875 13.125 C12.28577829 15.37968603 13.70139961 17.63126155 15.1171875 19.8828125 C15.78459961 20.94790039 16.45201172 22.01298828 17.13964844 23.11035156 C18.67312171 25.49226622 20.25742748 27.78192788 21.9453125 30.0546875 C24 33 24 33 24.37841797 34.93408203 C25.22707567 37.7547189 26.88492443 38.97348671 29 41 C31.89558844 44.85808851 34.55705575 48.87364644 37.25 52.875 C37.99507813 53.95136719 38.74015625 55.02773438 39.5078125 56.13671875 C40.21164063 57.18214844 40.91546875 58.22757812 41.640625 59.3046875 C42.28547852 60.25327637 42.93033203 61.20186523 43.59472656 62.17919922 C45.2134556 65.42846872 45.39456658 67.41457724 45 71 C43.75450245 73.29039814 42.52419861 75.2250106 41 77.3125 C40.08033271 78.62942002 39.16390877 79.94860846 38.25 81.26953125 C37.73695313 82.00768066 37.22390625 82.74583008 36.6953125 83.50634766 C33.34852906 88.42916535 30.19093523 93.47540058 27 98.5 C21.10745504 107.74245403 15.1225586 116.90892815 9 126 C8.21647328 127.17773759 7.4339255 128.35612702 6.65234375 129.53515625 C6.27851563 130.09871826 5.9046875 130.66228027 5.51953125 131.24291992 C4.51150834 132.76336964 3.50378901 134.28402061 2.49609375 135.8046875 C1 138 1 138 0 139 C-2.44830426 139.08843793 -4.86820599 139.11528752 -7.31640625 139.09765625 C-8.04746078 139.0962413 -8.77851532 139.09482635 -9.53172302 139.09336853 C-11.87535632 139.08775408 -14.21889539 139.07519922 -16.5625 139.0625 C-18.14778508 139.05748686 -19.73307166 139.05292363 -21.31835938 139.04882812 C-25.2122761 139.03777997 -29.10612205 139.02050572 -33 139 C-32.35439129 135.15548585 -30.55221747 132.50730488 -28.4140625 129.28515625 C-28.04506836 128.72542618 -27.67607422 128.16569611 -27.29589844 127.58900452 C-26.07750193 125.74331272 -24.85128217 123.90295992 -23.625 122.0625 C-22.77334666 120.77561093 -21.92228091 119.48833283 -21.07177734 118.20068359 C-19.29219377 115.50719244 -17.51004192 112.81542452 -15.7265625 110.12451172 C-13.03116743 106.05286008 -10.35651819 101.96788292 -7.6875 97.87890625 C-7.26004486 97.22436966 -6.83258972 96.56983307 -6.3921814 95.89546204 C-4.73227779 93.35350043 -3.07257332 90.81141071 -1.41436768 88.26834106 C-0.26984977 86.51390041 0.87643248 84.76062792 2.0234375 83.0078125 C2.71252197 81.95440674 3.40160645 80.90100098 4.11157227 79.81567383 C5.69716032 77.45153847 7.33963668 75.16779383 9.05078125 72.89453125 C11.3521663 70.10483086 11.3521663 70.10483086 10.8125 66.5625 C10.544375 65.716875 10.27625 64.87125 10 64 C9.34 64 8.68 64 8 64 C7.4121875 62.453125 7.4121875 62.453125 6.8125 60.875 C5.6361313 58.08677995 4.29656244 55.97029911 2.3125 53.6875 C0 51 0 51 0 49 C-0.66 49 -1.32 49 -2 49 C-2.25007813 48.28714844 -2.50015625 47.57429688 -2.7578125 46.83984375 C-4.12705788 43.7095249 -5.82354664 41.29132003 -7.875 38.5625 C-8.58269531 37.60214844 -9.29039062 36.64179688 -10.01953125 35.65234375 C-11.15164125 34.13616487 -12.29054152 32.62488036 -13.44921875 31.12890625 C-15.05717079 28.95676052 -16.03052602 27.58420489 -15.88671875 24.83203125 C-14.63219823 20.82530271 -12.50963192 17.57929707 -10.25 14.0625 C-9.81945312 13.37220703 -9.38890625 12.68191406 -8.9453125 11.97070312 C-6.2383694 7.69551604 -3.32138329 3.8172013 0 0 Z " fill="#942C68" transform="translate(198,218)"/>
<path d="M0 0 C0.70118958 0.02580643 1.40237915 0.05161285 2.12481689 0.07820129 C3.21503143 0.0888134 3.21503143 0.0888134 4.32727051 0.09963989 C6.64105646 0.12755524 8.95239188 0.19027871 11.26544189 0.25398254 C12.83702144 0.27906955 14.40863905 0.30188203 15.98028564 0.32234192 C19.8262771 0.37737122 23.67044455 0.46361589 27.51544189 0.56648254 C23.89044189 9.87898254 23.89044189 9.87898254 20.51544189 11.56648254 C19.51701714 13.1494689 19.51701714 13.1494689 18.52716064 15.15242004 C14.58636216 22.45147673 9.89937115 29.27843256 5.32794189 36.19148254 C4.42335995 37.56499276 3.51906147 38.9386897 2.61505127 40.31257629 C2.16797821 40.99084473 1.72090515 41.66911316 1.26028442 42.36793518 C0.36260307 43.73083975 -0.53346451 45.09480865 -1.42788696 46.45985413 C-3.7045866 49.92286114 -6.02155776 53.34489051 -8.42449951 56.72175598 C-8.89422684 57.39290436 -9.36395416 58.06405273 -9.84791565 58.75553894 C-10.73995497 60.02676947 -11.64559428 61.28860505 -12.56687927 62.5388031 C-14.52578331 65.35428998 -15.48442489 67.15057517 -15.48553467 70.61531067 C-14.32020989 74.05102918 -12.77584216 76.63806398 -10.73065186 79.63679504 C-10.16194115 80.48031021 -10.16194115 80.48031021 -9.58174133 81.34086609 C-8.37151483 83.13119694 -7.14726873 84.91138194 -5.92205811 86.69148254 C-5.12616826 87.86270035 -4.33123827 89.03457102 -3.53729248 90.20710754 C-2.74764919 91.3712177 -1.95793593 92.5352804 -1.16815186 93.69929504 C-0.58594376 94.55772003 -0.58594376 94.55772003 0.00802612 95.43348694 C1.95496174 98.29718523 3.92022123 101.14437052 5.92510986 103.96784973 C7.03523438 105.55968079 7.03523438 105.55968079 8.16778564 107.18367004 C8.83672852 108.1258136 9.50567139 109.06795715 10.19488525 110.03865051 C11.51544189 112.56648254 11.51544189 112.56648254 11.35650635 114.688797 C10.50182726 116.59687737 9.57991647 118.26195008 8.40606689 119.99226379 C7.98067627 120.62454895 7.55528564 121.25683411 7.11700439 121.90827942 C6.67098877 122.55861145 6.22497314 123.20894348 5.76544189 123.87898254 C5.33489502 124.51771301 4.90434814 125.15644348 4.46075439 125.81452942 C1.54927524 130.11637062 -1.45150854 134.34967083 -4.48455811 138.56648254 C-8.29715771 137.29561601 -8.82246182 135.93853034 -10.96893311 132.58992004 C-11.64939697 131.53796448 -12.32986084 130.48600891 -13.03094482 129.4021759 C-13.76559209 128.24868118 -14.50012708 127.09511495 -15.23455811 125.94148254 C-15.99560685 124.75938674 -16.75749852 123.57783322 -17.52020264 122.39680481 C-19.08462806 119.97249405 -20.64498613 117.54563998 -22.20233154 115.11677551 C-24.93886378 110.85326233 -27.70946409 106.61225556 -30.48358154 102.37312317 C-32.33136457 99.54710207 -34.16987774 96.71520252 -36.00799561 93.88288879 C-38.26907126 90.40687862 -40.56544476 86.95932087 -42.89862061 83.53132629 C-43.42214111 82.75216858 -43.94566162 81.97301086 -44.48504639 81.17024231 C-45.4530394 79.73149138 -46.43243901 78.30031925 -47.42547607 76.8787384 C-50.52444105 72.23739595 -50.52444105 72.23739595 -50.34735107 69.25837708 C-49.24664063 65.8241854 -47.46408427 63.05789505 -45.46112061 60.09773254 C-45.04759842 59.47260269 -44.63407623 58.84747284 -44.20802307 58.20339966 C-42.84922761 56.15276322 -41.47948744 54.10969401 -40.10955811 52.06648254 C-39.16351576 50.64343753 -38.21829422 49.21984653 -37.27386475 47.79573059 C-35.81519692 45.59688193 -34.35572481 43.39859938 -32.89308167 41.20239258 C-29.56982303 36.21218135 -26.27607537 31.20372712 -23.00408936 26.17976379 C-22.57187073 25.51665192 -22.1396521 24.85354004 -21.69433594 24.17033386 C-20.03134854 21.61848385 -18.36870009 19.06642145 -16.70922852 16.51228333 C-15.57291981 14.76445935 -14.4333812 13.0187817 -13.29315186 11.27351379 C-12.33106812 9.79588562 -12.33106812 9.79588562 -11.34954834 8.28840637 C-10.42637817 6.94105408 -10.42637817 6.94105408 -9.48455811 5.56648254 C-8.90294922 4.63384583 -8.32134033 3.70120911 -7.72210693 2.74031067 C-5.12916346 0.22120879 -3.5623512 -0.00203721 0 0 Z " fill="#8C2B6A" transform="translate(54.48455810546875,216.4335174560547)"/>
<path d="M0 0 C20 0 20 0 26.75 5.875 C28.40380859 7.81835938 28.40380859 7.81835938 29.5234375 9.46875 C31.68227693 12.55328117 33.97918707 15.46772139 36.375 18.375 C37.303125 19.56029297 37.303125 19.56029297 38.25 20.76953125 C42.47800792 26.64734104 42.47800792 26.64734104 48 31 C48 20.77 48 10.54 48 0 C54.93 0 61.86 0 69 0 C69 22.77 69 45.54 69 69 C49 69 49 69 42.3125 63.1875 C40.67089844 61.25634766 40.67089844 61.25634766 39.546875 59.6015625 C37.20255317 56.26650678 34.69050384 53.18003397 32.0625 50.0625 C30.70488231 48.37777515 29.35027738 46.69061368 28 45 C24.97812171 40.94596856 24.97812171 40.94596856 21 38 C21 48.56 21 59.12 21 70 C14.07 70 7.14 70 0 70 C0 46.9 0 23.8 0 0 Z " fill="#F5F5F5" transform="translate(701,252)"/>
<path d="M0 0 C4.80098345 3.5192043 7.85335473 7.01196358 9 13 C9 14.98 9 16.96 9 19 C2.07 19 -4.86 19 -12 19 C-12.495 17.515 -12.495 17.515 -13 16 C-16.66782779 12.67837025 -20.59310976 10.65911946 -25.5625 10.4375 C-30.96552232 10.76410757 -34.73210045 12.8436365 -38.66796875 16.5859375 C-40.69802825 20.26504827 -40.47423226 23.74095112 -40.4375 27.875 C-40.45748047 28.66519531 -40.47746094 29.45539063 -40.49804688 30.26953125 C-40.49357987 35.63887598 -39.60502662 38.78011247 -36 43 C-31.04511668 45.85858653 -26.6050198 46.82265457 -21 46 C-18.36261974 45.25299634 -16.43895098 44.34391176 -14 43 C-13.67 42.01 -13.34 41.02 -13 40 C-17.95 40 -22.9 40 -28 40 C-28 35.05 -28 30.1 -28 25 C-15.46 25 -2.92 25 10 25 C10.020625 31.249375 10.04125 37.49875 10.0625 43.9375 C10.071604 45.91226318 10.08070801 47.88702637 10.09008789 49.92163086 C10.09300705 51.47770113 10.09555561 53.03377216 10.09765625 54.58984375 C10.10277222 55.40521606 10.10788818 56.22058838 10.11315918 57.06066895 C10.1134694 59.04080523 10.06238096 61.02084654 10 63 C9 64 9 64 6.27734375 64.09765625 C4.62412109 64.08025391 4.62412109 64.08025391 2.9375 64.0625 C1.83277344 64.05347656 0.72804688 64.04445313 -0.41015625 64.03515625 C-1.26480469 64.02355469 -2.11945313 64.01195312 -3 64 C-3.66 62.02 -4.32 60.04 -5 58 C-5.83144531 58.34933594 -6.66289062 58.69867188 -7.51953125 59.05859375 C-8.60621094 59.51363281 -9.69289063 59.96867187 -10.8125 60.4375 C-11.89144531 60.88996094 -12.97039062 61.34242188 -14.08203125 61.80859375 C-19.4129615 63.98521186 -23.57310941 64.1831928 -29.25 64.1875 C-30.08402344 64.19974609 -30.91804688 64.21199219 -31.77734375 64.22460938 C-39.60196182 64.24303469 -47.87115624 63.06270668 -53.70703125 57.3203125 C-58 52.47438525 -58 52.47438525 -58 50 C-58.99 49.67 -59.98 49.34 -61 49 C-63.17890667 41.96545031 -63.24498875 35.2521986 -63.125 27.9375 C-63.11597656 26.88111328 -63.10695313 25.82472656 -63.09765625 24.73632812 C-63.0743167 22.15730747 -63.04157775 19.5787801 -63 17 C-62.34 17 -61.68 17 -61 17 C-61.020625 15.88625 -61.04125 14.7725 -61.0625 13.625 C-60.26596329 7.22994809 -55.62149828 3.11773307 -51 -1 C-35.76277708 -11.40045307 -15.07161403 -9.08912413 0 0 Z " fill="#F6F6F6" transform="translate(327,258)"/>
<path d="M0 0 C7.92 0 15.84 0 24 0 C27.33490999 7.78145663 27.33490999 7.78145663 27.9609375 12.19140625 C28.96982355 18.3000755 30.73350031 24.0515528 32.625 29.9375 C33.26820433 31.94496113 33.90644426 33.95402149 34.5390625 35.96484375 C34.81959473 36.8374585 35.10012695 37.71007324 35.38916016 38.60913086 C36 41 36 41 36 45 C38.19227033 44.18899334 38.19227033 44.18899334 38.74609375 41.97802734 C38.97425781 41.1061377 39.20242188 40.23424805 39.4375 39.3359375 C39.82035156 37.89927734 39.82035156 37.89927734 40.2109375 36.43359375 C40.60152344 34.91958984 40.60152344 34.91958984 41 33.375 C41.52055966 31.40357355 42.04138718 29.43221781 42.5625 27.4609375 C42.9349585 26.04131714 42.9349585 26.04131714 43.31494141 24.59301758 C44.87889736 18.67328266 46.66780144 12.86071695 48.625 7.0625 C49.40875 4.731875 50.1925 2.40125 51 0 C58.59 0 66.18 0 74 0 C74 1.65 74 3.3 74 5 C73.34 5 72.68 5 72 5 C71.62875 6.8253125 71.62875 6.8253125 71.25 8.6875 C69.42417215 16.89725077 66.8809451 24.95238357 63.84375 32.79296875 C60.65389235 41.13680936 57.75782619 49.59322399 54.9921875 58.0859375 C53.74362664 61.75297056 52.36016881 65.37288317 51 69 C42.09 69 33.18 69 24 69 C18.42496494 55.61991585 18.42496494 55.61991585 16.4375 48.875 C15.15583035 44.53772346 13.77842468 40.36347754 12.0703125 36.17578125 C9.94505178 30.96244551 8.17039051 25.66693696 6.4375 20.3125 C4.11708455 13.08195262 4.11708455 13.08195262 1.28515625 6.04296875 C0 3 0 3 0 0 Z " fill="#F7F7F7" transform="translate(501,252)"/>
<path d="M0 0 C7.59 0 15.18 0 23 0 C23 23.1 23 46.2 23 70 C15.41 70 7.82 70 0 70 C0 46.9 0 23.8 0 0 Z " fill="#F1F1F1" transform="translate(624,252)"/>
<path d="M0 0 C7.59 0 15.18 0 23 0 C23 22.77 23 45.54 23 69 C15.41 69 7.82 69 0 69 C0 46.23 0 23.46 0 0 Z " fill="#F3F3F3" transform="translate(824,253)"/>
<path d="M0 0 C4.68573268 5.41307029 5.75949426 8.99128132 5.5 16.0625 C5.50386719 17.22749023 5.50386719 17.22749023 5.5078125 18.41601562 C5.42484416 23.31529597 4.65199492 26.74900814 2 31 C-2.56099468 35.13340143 -7.304963 35.51195048 -13.26171875 35.48828125 C-17.20849312 34.78450551 -18.68820498 32.97897753 -20.9765625 29.82421875 C-24.4900719 23.56158941 -23.84786584 14.24556352 -22.46875 7.33984375 C-21.14471361 3.49006404 -19.6526313 0.88165855 -16 -1 C-10.88430587 -2.94043571 -4.6885999 -2.83783678 0 0 Z " fill="#070707" transform="translate(432,270)"/>
<path d="M0 0 C0.33 0.66 0.66 1.32 1 2 C0.00390625 3.9453125 0.00390625 3.9453125 -1.4375 6.125 C-1.91058594 6.84945313 -2.38367188 7.57390625 -2.87109375 8.3203125 C-3.24363281 8.87460937 -3.61617188 9.42890625 -4 10 C0.58332006 10.02901401 5.16661651 10.04680348 9.75 10.0625 C11.70292969 10.07506836 11.70292969 10.07506836 13.6953125 10.08789062 C14.94570312 10.09111328 16.19609375 10.09433594 17.484375 10.09765625 C18.63647461 10.10289307 19.78857422 10.10812988 20.97558594 10.11352539 C23.51926964 10.01804485 25.58398313 9.74917261 28 9 C27.67 9.99 27.34 10.98 27 12 C15.78 12 4.56 12 -7 12 C-5.05372161 7.13430402 -3.07915761 4.13255363 0 0 Z " fill="#411A45" transform="translate(68,345)"/>
<path d="M0 0 C7.92 0 15.84 0 24 0 C27 7 27 7 26 11 C25.01 8.36 24.02 5.72 23 3 C16.07 2.67 9.14 2.34 2 2 C1.67 3.32 1.34 4.64 1 6 C0.67 4.02 0.34 2.04 0 0 Z " fill="#ADADAD" transform="translate(501,252)"/>
<path d="M0 0 C0.88856689 -0.00531738 1.77713379 -0.01063477 2.69262695 -0.01611328 C9.17557337 0.05454891 9.17557337 0.05454891 12.5625 2.3125 C11.65709473 2.342229 11.65709473 2.342229 10.73339844 2.37255859 C-5.45515696 2.87432672 -5.45515696 2.87432672 -21.4375 5.3125 C-20.14474369 2.72698737 -19.32805586 2.62481184 -16.625 1.6875 C-11.10111288 0.10119422 -5.70378975 0.0173445 0 0 Z " fill="#A4A4A4" transform="translate(301.4375,250.6875)"/>
<path d="M0 0 C0 0.33 0 0.66 0 1 C-1.15628906 1.03867187 -1.15628906 1.03867187 -2.3359375 1.078125 C-3.33882813 1.13484375 -4.34171875 1.1915625 -5.375 1.25 C-6.37273437 1.29640625 -7.37046875 1.3428125 -8.3984375 1.390625 C-11.12686831 1.71165851 -11.12686831 1.71165851 -12.2265625 3.90625 C-12.48179687 4.5971875 -12.73703125 5.288125 -13 6 C-15 8.25 -15 8.25 -17 10 C-17.66 10 -18.32 10 -19 10 C-19 15.61 -19 21.22 -19 27 C-19.33 27 -19.66 27 -20 27 C-20.1356886 24.12340174 -20.23440753 21.25326537 -20.3125 18.375 C-20.35439453 17.56675781 -20.39628906 16.75851562 -20.43945312 15.92578125 C-20.52557795 11.68843998 -20.38695022 8.89417336 -17.65234375 5.53125 C-12.05295521 0.18750365 -7.42585986 -0.44555159 0 0 Z " fill="#717171" transform="translate(306,268)"/>
<path d="M0 0 C0.99 0.33 1.98 0.66 3 1 C3 1.66 3 2.32 3 3 C2.28199219 3.38414062 1.56398437 3.76828125 0.82421875 4.1640625 C-2.94756067 6.61597996 -4.79686948 9.62811163 -7.1875 13.375 C-7.62513672 14.035 -8.06277344 14.695 -8.51367188 15.375 C-12.6799834 21.69154313 -12.6799834 21.69154313 -14 29 C-14.66 28.34 -15.32 27.68 -16 27 C-15.81650491 21.99975883 -12.87007803 18.14028041 -10.25 14.0625 C-9.81945312 13.37220703 -9.38890625 12.68191406 -8.9453125 11.97070312 C-6.2383694 7.69551604 -3.32138329 3.8172013 0 0 Z " fill="#491A4A" transform="translate(198,218)"/>
<path d="M0 0 C1.38594529 0.00031696 2.77191535 0.01163319 4.15771484 0.03173828 C4.88735443 0.03456818 5.61699402 0.03739807 6.3687439 0.04031372 C8.70221262 0.05152076 11.03529937 0.07662568 13.36865234 0.10205078 C14.94937597 0.11207993 16.53010561 0.1212059 18.11083984 0.12939453 C21.98859149 0.15146173 25.86605712 0.18599463 29.74365234 0.22705078 C29.08365234 1.87705078 28.42365234 3.52705078 27.74365234 5.22705078 C27.24865234 4.23705078 27.24865234 4.23705078 26.74365234 3.22705078 C27.07365234 2.56705078 27.40365234 1.90705078 27.74365234 1.22705078 C23.72261278 1.24655554 19.70338631 1.29852269 15.68310547 1.37963867 C14.31766569 1.40272972 12.95205006 1.41719349 11.58642578 1.42260742 C2.62352128 1.12313298 2.62352128 1.12313298 -5.18603516 4.77783203 C-5.86923828 5.58607422 -6.55244141 6.39431641 -7.25634766 7.22705078 C-4.71486729 0.32874693 -4.71486729 0.32874693 0 0 Z " fill="#4E1E5B" transform="translate(52.25634765625,216.77294921875)"/>
<path d="M0 0 C0 0.66 0 1.32 0 2 C-0.99 2.33 -1.98 2.66 -3 3 C-3.825 3.99 -4.65 4.98 -5.5 6 C-8 9 -8 9 -11 10 C-9.63088196 6.8510285 -8.1247864 4.9521513 -5.5 2.75 C-4.8915625 2.22921875 -4.283125 1.7084375 -3.65625 1.171875 C-2 0 -2 0 0 0 Z " fill="#BABABA" transform="translate(280,256)"/>
<path d="M0 0 C0.99 0.33 1.98 0.66 3 1 C3 1.66 3 2.32 3 3 C1.35666496 4.03789581 -0.31243867 5.03567924 -2 6 C-2.66 6.66 -3.32 7.32 -4 8 C-3.50168276 4.31245243 -2.89932357 2.39509338 0 0 Z " fill="#4C1D57" transform="translate(198,218)"/>
</svg>
